<?xml version="1.0" encoding="utf-8"?>
<svg xmlns="http://www.w3.org/2000/svg" width="1360" height="1352" viewBox="0 0 1360 1352">
  <rect x="0" y="0" width="1360" height="1352" fill="white"/>
  <g>
    <path d="M 0 2.14 L 122.86 3.57 L 127.86 15.71 L 113.57 37.14 L 127.86 51.43 L 126.43 71.43 L 152.14 75.71 L 154.29 107.86 L 200 107.86 L 202.14 138.57 L 227.86 144.29 L 229.29 155.71 L 213.57 175.71 L 227.86 191.43 L 230 212.14 L 253.57 214.29 L 242.14 247.14 L 255 261.43 L 253.57 280 L 277.86 284.29 L 280 316.43 L 305 320 L 287.86 347.14 L 305 378.57 L 255.71 382.14 L 255 405.71 L 236.43 425.71 L 240.71 444.29 L 255 454.29 L 253.57 522.86 L 288.57 543.57 L 328.57 526.43 L 332.14 585.71 L 281.43 590.71 L 275.71 626.43 L 230.71 628.57 L 255 635.71 L 235 655.71 L 330.71 701.43 L 332.14 732.86 L 313.57 751.43 L 316.43 767.14 L 332.14 778.57 L 330.71 815.71 L 307.14 817.86 L 287.86 851.43 L 302.86 887.86 L 261.43 887.86 L 257.86 854.29 L 234.29 852.14 L 195.71 853.57 L 105.71 852.14 L 99.29 885.71 L 84.29 889.29 L 74.29 873.57 L 62.86 873.57 L 47.14 890.71 L 0 887.86 L 0 2.14 Z" fill="#024701" fill-opacity="0.10" stroke="#000000" stroke-width="1.2"/>
    <path d="M 1357.14 329.29 L 1307.14 329.29 L 1297.14 317.86 L 1262.86 329.29 L 1255.71 316.43 L 1252.86 363.57 L 1207.14 365 L 1197.14 352.14 L 1168.57 365 L 1130 363.57 L 1124.29 416.43 L 1030 416.43 L 1027.86 394.29 L 1042.14 385.71 L 1045 365.71 L 1027.86 351.43 L 1025.71 277.86 L 995.71 277.86 L 980 260.71 L 964.29 262.14 L 951.43 279.29 L 928.57 277.86 L 925.71 229.29 L 920 243.57 L 882.86 245 L 862.86 226.43 L 848.57 227.86 L 835.71 245 L 795.71 243.57 L 791.43 277.86 L 777.14 277.86 L 760 259.29 L 722.86 277.86 L 719.29 215.71 L 730.71 195.71 L 717.86 182.86 L 722.86 126.43 L 796.43 124.29 L 720.71 118.57 L 719.29 102.86 L 733.57 85.71 L 719.29 62.86 L 722.86 3.57 L 1356.118 1.352 L 1357.14 329.29 Z" fill="#024701" fill-opacity="0.10" stroke="#000000" stroke-width="1.2"/>
    <path d="M1357.14,830.71 L1357.14,336.43 Z" fill="#024701" fill-opacity="0.10" stroke="#000000" stroke-width="1.2"/>
    <path d="M1357.14,882.14 L1357.14,839.29 Z" fill="#024701" fill-opacity="0.10" stroke="#000000" stroke-width="1.2"/>
    <path d="M1357.14,912.14 L1357.14,892.14 Z" fill="#024701" fill-opacity="0.10" stroke="#000000" stroke-width="1.2"/>
    <path d="M1357.14,987.86 L1357.14,920.71 Z" fill="#024701" fill-opacity="0.10" stroke="#000000" stroke-width="1.2"/>
    <path d="M1357.14,1099.29 L1357.14,1020.71 Z" fill="#024701" fill-opacity="0.10" stroke="#000000" stroke-width="1.2"/>
    <path d="M 566.43 1347.89 L 566.43 1293.91 L 615.71 1291.78 L 615 1266.92 L 629.29 1255.56 L 617.86 1235.67 L 615 1127.72 L 629.29 1120.62 L 629.29 1106.41 L 616.43 1099.31 L 615.71 1078.72 L 592.14 1076.58 L 592.14 1032.56 L 609.29 1009.83 L 592.14 988.517 L 594.29 979.29 L 671.43 979.29 L 688.57 996.333 L 714.29 979.29 L 737.14 979.29 L 739.29 1060.96 L 747.14 1048.89 L 758.57 1048.89 L 778.57 1065.93 L 822.14 1046.75 L 824.29 979.29 L 892.86 979.29 L 893.57 1006.98 L 912.86 1029.01 L 930 1030.42 L 945 1016.92 L 947.14 1080.13 L 954.29 1011.95 L 1010 1011.95 L 1017.14 1023.32 L 1049.29 1045.33 L 1097.14 1048.89 L 1102.86 1082.98 L 1130 1080.13 L 1135.71 1095.76 L 1160 1081.56 L 1177.86 1085.11 L 1177.86 1180.28 L 1131.43 1186.67 L 1182.14 1184.54 L 1184.29 1117.07 L 1282.86 1117.07 C 1282.86 1117.07 1317.16 1116.04 1315.71 1117.07 L 1357.14 1117.07 C 1360.34 1124.97 1359.992 1413.1 1360.071 1361.619 C 1360.118 1330.863 1410.033 1353.778 1360.432 1353.051 C 1127.58 1349.638 585.441 1365.21 566.43 1347.89 Z" fill="#024701" fill-opacity="0.10" stroke="#000000" stroke-width="1.2" style=""/>
    <path d="M178.57,87.86 L186.43,91.43 L178.57,87.86 Z" fill="#024701" fill-opacity="0.10" stroke="#000000" stroke-width="1.2"/>
    <path d="M398.57,106.43 L398.57,106.43 Z" fill="#024701" fill-opacity="0.10" stroke="#000000" stroke-width="1.2"/>
    <path d="M427.14,186.43 L427.14,186.43 Z" fill="#024701" fill-opacity="0.10" stroke="#000000" stroke-width="1.2"/>
    <path d="M558.57,207.86 L558.57,207.86 Z" fill="#024701" fill-opacity="0.10" stroke="#000000" stroke-width="1.2"/>
    <path d="M692.86,242.14 L692.86,242.14 Z" fill="#024701" fill-opacity="0.10" stroke="#000000" stroke-width="1.2"/>
    <path d="M1315.71,937.86 L1315.71,937.86 Z" fill="#024701" fill-opacity="0.10" stroke="#000000" stroke-width="1.2"/>
    <path d="M100.00,949.29 L100.00,949.29 Z" fill="#024701" fill-opacity="0.10" stroke="#000000" stroke-width="1.2"/>
    <path d="M1184.29,986.43 L1184.29,986.43 Z" fill="#024701" fill-opacity="0.10" stroke="#000000" stroke-width="1.2"/>
    <path d="M307.14,1083.57 L307.14,1083.57 Z" fill="#024701" fill-opacity="0.10" stroke="#000000" stroke-width="1.2"/>
    <path d="M54.29,1130.71 L54.29,1130.71 Z" fill="#024701" fill-opacity="0.10" stroke="#000000" stroke-width="1.2"/>
    <path d="M478.57,1137.86 L478.57,1137.86 Z" fill="#024701" fill-opacity="0.10" stroke="#000000" stroke-width="1.2"/>
    <path d="M258.57,1230.71 L258.57,1230.71 Z" fill="#024701" fill-opacity="0.10" stroke="#000000" stroke-width="1.2"/>
    <path d="M 2.14 1350 L 2.14 895.71 L 44.29 893.57 L 62.86 873.57 L 100 893.57 L 105.71 856.43 L 174.29 856.43 L 180 887.86 L 182.14 858.57 L 253.57 858.57 L 261.43 893.57 L 353.57 895.71 L 362.86 962.14 L 377.14 962.14 L 390 977.86 L 428.57 962.14 L 433.57 1045.71 L 457.14 1065 L 480 1053.57 L 483.57 1081.43 L 508.57 1085 L 517.14 1085 L 540 1083.57 L 572.86 1097.86 L 584.29 1085 L 610 1085 L 629.29 1107.14 L 629.29 1121.43 L 613.57 1138.57 L 613.57 1232.86 L 629.29 1257.14 L 615 1268.57 L 610 1287.86 L 490 1287.86 L 487.14 1293.57 L 558.57 1293.57 L 560.71 1350 L 2.14 1350 Z" fill="#01a903" fill-opacity="0.10" stroke="#000000" stroke-width="1.2"/>
    <path d="M 132.86 5 L 711.43 5 L 715 57.14 L 733.57 78.57 L 715 105.71 L 715 152.86 L 715 162.86 L 717.86 182.86 L 730.71 195.71 L 716.43 222.86 L 715 275.71 L 687.14 277.86 L 662.86 260.71 L 645.71 277.86 L 621.43 277.86 L 617.14 250.71 L 611.43 277.86 L 584.29 277.86 L 558.57 260.71 L 542.86 277.86 L 510.71 280 L 507.14 346.43 L 481.43 346.43 L 458.57 329.29 L 441.43 346.43 L 415.71 347.86 L 413.57 315.71 L 378.57 296.43 L 365.71 297.86 L 355.71 312.14 L 285.71 312.14 L 282.14 280 L 261.43 277.86 L 242.14 248.57 L 259.29 222.86 L 257.86 210 L 235.71 205 L 213.57 175.71 L 232.14 141.43 L 209.29 134.29 L 205.71 103.57 L 160 102.14 L 156.43 71.43 L 132.86 69.29 L 113.57 37.14 L 132.86 5 Z" fill="#01a903" fill-opacity="0.10" stroke="#000000" stroke-width="1.2"/>
    <path d="M 1284.29 317.86 L 1297.14 317.86 L 1314.29 335 L 1355 338.57 L 1356.43 1100 L 1352.86 1112.14 L 1322.86 1113.57 L 1301.43 1130.71 L 1275.71 1113.57 L 1185.71 1113.57 L 1180 1079.29 L 1135.71 1096.43 L 1130 1080.71 L 1105 1077.14 L 1101.43 1045 L 1058.57 1045 L 1017.14 1023.57 L 1003.57 994.29 L 1005 950 L 1019.29 934.29 L 1003.57 897.14 L 1102.86 892.14 L 1105 875.71 L 1122.14 858.57 L 1106.43 835.71 L 1106.43 807.14 L 1133.57 804.29 L 1110 802.14 L 1101.43 782.14 L 1027.86 778.57 L 1045 751.43 L 1027.86 722.86 L 1055 712.86 L 1055 631.43 L 1069.29 617.14 L 1055 581.43 L 1077.14 577.86 L 1080.71 545.71 L 1080.71 535.71 L 1078.57 505 L 1055 500 L 1055 472.86 L 1030.71 465.71 L 1045 441.43 L 1029.29 425.71 L 1128.57 420.71 L 1132.14 370 L 1165.71 367.86 L 1185.71 352.14 L 1215.71 367.86 L 1255.71 367.86 L 1260.71 337.14 L 1284.29 317.86 Z" fill="#01a903" fill-opacity="0.10" stroke="#000000" stroke-width="1.2"/>
    <path d="M 854.29 226.43 L 870 227.86 L 884.29 246.43 L 920 246.43 L 925.71 280.71 L 947.14 282.14 L 964.29 262.14 L 980 260.71 L 995.71 277.86 L 1023.57 284.29 L 1023.57 348.57 L 1045 365.71 L 1042.14 385.71 L 1023.57 397.14 L 1022.14 417.14 L 1045 448.57 L 1025 471.43 L 1049.29 475.71 L 1054.29 507.86 L 1077.86 510 L 1077.86 570 L 1050.71 577.14 L 1069.29 617.14 L 1047.86 645.71 L 1049.29 711.43 L 1023.57 717.14 L 1023.57 728.57 L 1042.14 738.57 L 1045 751.43 L 1023.57 782.86 L 1098.57 786.43 L 1100.71 830 L 1119.29 844.29 L 1122.14 858.57 L 1098.57 889.29 L 999.29 891.43 L 999.29 907.14 L 1016.43 920 L 1019.29 934.29 L 999.29 951.43 L 999.29 1005.71 L 990 1013.57 L 947.14 1009.29 L 932.86 1029.29 L 915.71 1030.71 L 896.43 1004.29 L 895.71 979.29 L 824.29 979.29 L 819.29 1042.86 L 778.57 1066.43 L 743.57 1042.86 L 742.14 985.71 L 728.57 975 L 695.71 996.43 L 664.29 975 L 591.43 975 L 606.43 1000 L 607.86 1021.43 L 587.86 1034.29 L 587.86 1078.57 L 572.86 1097.86 L 554.29 1097.86 L 541.43 1080.71 L 491.43 1080.71 L 485.71 1045 L 471.43 1062.14 L 436.43 1042.86 L 436.43 961.43 L 421.43 959.29 L 404.29 976.43 L 390 977.86 L 372.86 957.86 L 362.86 959.29 L 359.29 892.86 L 312.86 889.29 L 287.86 858.57 L 311.43 820.71 L 335 818.57 L 337.86 784.29 L 313.57 760 L 316.43 744.29 L 335 730 L 335 698.57 L 235 655.71 L 258.57 630.71 L 280.71 627.14 L 284.29 595 L 335 591.43 L 335 527.14 L 317.14 526.43 L 302.86 542.14 L 288.57 543.57 L 256.43 521.43 L 256.43 461.43 L 239.29 441.43 L 237.86 421.43 L 257.86 402.86 L 260 386.43 L 309.29 382.86 L 287.86 347.14 L 311.43 316.43 L 352.86 316.43 L 365.71 297.86 L 382.86 297.86 L 409.29 318.57 L 411.43 350.71 L 438.57 350.71 L 458.57 329.29 L 482.86 350.71 L 512.86 350.71 L 515 284.29 L 540 282.14 L 558.57 260.71 L 577.14 266.43 L 587.14 282.14 L 642.86 282.14 L 654.29 265 L 670 260.71 L 691.43 282.14 L 720 283.57 L 754.29 259.29 L 794.29 280.71 L 798.57 246.43 L 834.29 246.43 L 854.29 226.43 Z" fill="#034e6a" fill-opacity="0.10" stroke="#000000" stroke-width="1.2"/>
    <path d="M662.86,419.29 L650.00,435.00 L615.71,435.00 L611.43,469.29 L537.86,471.43 L536.43,494.29 L517.86,508.57 L519.29,522.86 L536.43,535.71 L536.43,554.29 L510.00,556.43 L509.29,572.86 L493.57,585.71 L493.57,602.86 L510.71,615.71 L510.71,658.57 L485.00,662.86 L558.57,665.00 L545.00,704.29 L564.29,733.57 L613.57,735.71 L615.71,787.86 L644.29,786.43 L657.14,803.57 L671.43,805.00 L688.57,786.43 L714.29,786.43 L718.57,820.71 L770.00,825.00 L772.86,752.14 L804.29,770.71 L825.71,752.14 L875.00,750.00 L875.00,702.86 L892.14,687.14 L875.00,650.00 L893.57,645.71 L875.00,642.86 L871.43,607.86 L840.71,605.71 L856.43,580.00 L840.71,542.86 L789.29,535.71 L785.71,469.29 L770.00,470.71 L755.71,453.57 L738.57,453.57 L727.14,469.29 L714.29,469.29 L710.00,436.43 L662.86,419.29 Z" fill="#034e6a" fill-opacity="0.10" stroke="#000000" stroke-width="1.2"/>
    <path d="M798.57,423.57 L798.57,423.57 Z" fill="#034e6a" fill-opacity="0.10" stroke="#000000" stroke-width="1.2"/>
    <path d="M622.86,439.29 L652.86,440.71 L667.14,455.00 L704.29,440.71 L707.86,471.43 L728.57,475.00 L741.43,489.29 L781.43,475.00 L785.00,541.43 L835.00,547.14 L819.29,571.43 L835.00,604.29 L810.71,610.00 L869.29,615.71 L869.29,661.43 L853.57,678.57 L869.29,698.57 L869.29,745.71 L824.29,747.86 L798.57,732.14 L774.29,747.86 L768.57,696.43 L764.29,816.43 L722.86,816.43 L718.57,782.14 L685.71,782.14 L672.86,767.86 L660.00,767.86 L647.14,782.14 L621.43,782.14 L619.29,715.71 L611.43,729.29 L568.57,729.29 L566.43,715.71 L580.71,708.57 L582.14,694.29 L566.43,678.57 L566.43,662.86 L516.43,657.14 L515.00,617.14 L530.71,587.14 L515.00,565.71 L540.71,560.00 L542.14,532.86 L557.86,517.14 L542.14,495.71 L542.14,477.14 L611.43,475.00 L617.14,507.86 L622.86,439.29 Z" fill="#600880" fill-opacity="0.10" stroke="#000000" stroke-width="1.2"/>
    <path d="M738.57,453.57 L738.57,453.57 Z" fill="#600880" fill-opacity="0.10" stroke="#000000" stroke-width="1.2"/>
    <path d="M884.29,666.43 L892.14,687.14 L877.14,700.71 L889.29,684.29 L884.29,666.43 Z" fill="#600880" fill-opacity="0.10" stroke="#000000" stroke-width="1.2"/>
    <path d="M782.86,752.14 L798.57,766.43 L822.14,758.57 L802.86,770.71 L782.86,752.14 Z" fill="#600880" fill-opacity="0.10" stroke="#000000" stroke-width="1.2"/>
    <path d="M647.14,787.86 L662.86,802.14 L686.43,790.00 L680.00,800.71 L660.00,805.00 L647.14,787.86 Z" fill="#600880" fill-opacity="0.10" stroke="#000000" stroke-width="1.2"/>
    <path d="M891.43,837.86 L891.43,837.86 Z" fill="#600880" fill-opacity="0.10" stroke="#000000" stroke-width="1.2"/>
    <path d="M914.29,839.29 L914.29,839.29 Z" fill="#600880" fill-opacity="0.10" stroke="#000000" stroke-width="1.2"/>
    <path d="M900.00,840.71 L900.00,840.71 Z" fill="#600880" fill-opacity="0.10" stroke="#000000" stroke-width="1.2"/>
    <path d="M921.43,840.71 L921.43,840.71 Z" fill="#600880" fill-opacity="0.10" stroke="#000000" stroke-width="1.2"/>
    <path d="M724.29,887.86 L724.29,887.86 Z" fill="#600880" fill-opacity="0.10" stroke="#000000" stroke-width="1.2"/>
    <path d="M727.14,902.14 L727.14,902.14 Z" fill="#600880" fill-opacity="0.10" stroke="#000000" stroke-width="1.2"/>
    <path d="M735.71,902.14 L735.71,902.14 Z" fill="#600880" fill-opacity="0.10" stroke="#000000" stroke-width="1.2"/>
    <path d="M742.86,903.57 L742.86,903.57 Z" fill="#600880" fill-opacity="0.10" stroke="#000000" stroke-width="1.2"/>
    <path d="M562.86,960.71 L562.86,960.71 Z" fill="#600880" fill-opacity="0.10" stroke="#000000" stroke-width="1.2"/>
    <path d="M515.71,969.29 L515.71,969.29 Z" fill="#600880" fill-opacity="0.10" stroke="#000000" stroke-width="1.2"/>
    <path d="M565.71,969.29 L565.71,969.29 Z" fill="#600880" fill-opacity="0.10" stroke="#000000" stroke-width="1.2"/>
    <path d="M 1357.471 1.352 L 722.86 3.57 L 720 59.29 L 711.43 5 L 132.86 5 L 128.57 15 L 122.86 3.57 L 0 2.14 L 1357.471 1.352 Z" fill="#528c2a" fill-opacity="0.10" stroke="#000000" stroke-width="1.2"/>
    <path d="M1357.14,336.43 L1312.14,332.86 L1357.14,329.29 Z" fill="#528c2a" fill-opacity="0.10" stroke="#000000" stroke-width="1.2"/>
    <path d="M1357.14,839.29 L1357.14,830.71 Z" fill="#528c2a" fill-opacity="0.10" stroke="#000000" stroke-width="1.2"/>
    <path d="M0.00,887.86 L46.43,890.00 L2.14,895.71 L2.14,1350.00 Z" fill="#528c2a" fill-opacity="0.10" stroke="#000000" stroke-width="1.2"/>
    <path d="M1357.14,892.14 L1357.14,882.14 Z" fill="#528c2a" fill-opacity="0.10" stroke="#000000" stroke-width="1.2"/>
    <path d="M1357.14,920.71 L1357.14,912.14 Z" fill="#528c2a" fill-opacity="0.10" stroke="#000000" stroke-width="1.2"/>
    <path d="M1357.14,997.86 L1357.14,987.86 Z" fill="#528c2a" fill-opacity="0.10" stroke="#000000" stroke-width="1.2"/>
    <path d="M1357.14,1020.71 L1357.14,1002.14 Z" fill="#528c2a" fill-opacity="0.10" stroke="#000000" stroke-width="1.2"/>
    <path d="M1357.14,1117.86 L1320.71,1117.14 L1350.00,1113.57 L1357.14,1099.29 Z" fill="#528c2a" fill-opacity="0.10" stroke="#000000" stroke-width="1.2"/>
    <path d="M 560.71 1350 L 558.57 1293.57 L 487.14 1293.57 L 490 1287.86 L 610 1287.86 L 617.14 1276.43 L 615.71 1293.57 L 566.43 1295.71 L 566.43 1350 L 560.71 1350 Z" fill="#528c2a" fill-opacity="0.10" stroke="#000000" stroke-width="1.2"/>
    <path d="M511.43,42.14 L511.43,42.14 Z" fill="#528c2a" fill-opacity="0.10" stroke="#000000" stroke-width="1.2"/>
    <path d="M127.14,57.86 L132.86,69.29 L156.43,71.43 L160.00,102.14 L205.71,103.57 L209.29,134.29 L230.00,139.29 L232.14,152.86 L225.71,142.14 L202.14,138.57 L200.00,107.86 L154.29,107.86 L152.14,75.71 L128.57,73.57 L127.14,57.86 Z" fill="#528c2a" fill-opacity="0.10" stroke="#000000" stroke-width="1.2"/>
    <path d="M181.43,69.29 L181.43,69.29 Z" fill="#528c2a" fill-opacity="0.10" stroke="#000000" stroke-width="1.2"/>
    <path d="M 717.14 103.57 L 722.86 120.71 L 796.43 124.29 L 722.86 126.43 L 717.14 177.86 L 712.86 160.71 L 715 152.86 L 717.14 103.57 Z" fill="#528c2a" fill-opacity="0.10" stroke="#000000" stroke-width="1.2"/>
    <path d="M427.14,166.43 L427.14,166.43 Z" fill="#528c2a" fill-opacity="0.10" stroke="#000000" stroke-width="1.2"/>
    <path d="M772.86,173.57 L772.86,173.57 Z" fill="#528c2a" fill-opacity="0.10" stroke="#000000" stroke-width="1.2"/>
    <path d="M228.57,196.43 L254.29,206.43 L259.29,222.86 L251.43,212.14 L230.00,212.14 L228.57,196.43 Z" fill="#528c2a" fill-opacity="0.10" stroke="#000000" stroke-width="1.2"/>
    <path d="M691.43,220.71 L691.43,220.71 Z" fill="#528c2a" fill-opacity="0.10" stroke="#000000" stroke-width="1.2"/>
    <path d="M718.57,220.71 L720.71,275.71 L730.71,280.00 L691.43,282.14 L715.00,275.71 L718.57,220.71 Z" fill="#528c2a" fill-opacity="0.10" stroke="#000000" stroke-width="1.2"/>
    <path d="M922.86,229.29 L925.71,267.86 L920.00,246.43 L883.57,245.71 L920.00,243.57 L922.86,229.29 Z" fill="#528c2a" fill-opacity="0.10" stroke="#000000" stroke-width="1.2"/>
    <path d="M795.71,243.57 L835.00,245.71 L798.57,246.43 L796.43,278.57 L784.29,280.71 L793.57,275.71 L795.71,243.57 Z" fill="#528c2a" fill-opacity="0.10" stroke="#000000" stroke-width="1.2"/>
    <path d="M615.71,250.71 L620.00,276.43 L645.00,280.00 L587.14,282.14 L613.57,275.71 L615.71,250.71 Z" fill="#528c2a" fill-opacity="0.10" stroke="#000000" stroke-width="1.2"/>
    <path d="M490.00,259.29 L490.00,259.29 Z" fill="#528c2a" fill-opacity="0.10" stroke="#000000" stroke-width="1.2"/>
    <path d="M255.71,266.43 L261.43,277.86 L282.14,280.00 L285.71,312.14 L355.00,314.29 L311.43,316.43 L307.14,326.43 L301.43,316.43 L280.00,316.43 L277.86,284.29 L255.71,282.14 L255.71,266.43 Z" fill="#528c2a" fill-opacity="0.10" stroke="#000000" stroke-width="1.2"/>
    <path d="M925.71,276.43 L950.71,280.00 L925.71,276.43 Z" fill="#528c2a" fill-opacity="0.10" stroke="#000000" stroke-width="1.2"/>
    <path d="M512.86,277.86 L542.14,280.00 L515.00,284.29 L515.00,348.57 L482.86,350.71 L509.29,344.29 L512.86,277.86 Z" fill="#528c2a" fill-opacity="0.10" stroke="#000000" stroke-width="1.2"/>
    <path d="M1001.43,277.86 L1027.86,280.00 L1027.14,350.71 L1023.57,284.29 L1001.43,277.86 Z" fill="#528c2a" fill-opacity="0.10" stroke="#000000" stroke-width="1.2"/>
    <path d="M395.71,312.14 L413.57,315.71 L415.71,347.86 L440.71,348.57 L411.43,350.71 L409.29,318.57 L395.71,312.14 Z" fill="#528c2a" fill-opacity="0.10" stroke="#000000" stroke-width="1.2"/>
    <path d="M1255.71,316.43 L1269.29,330.00 L1259.29,341.43 L1259.29,364.29 L1215.71,367.86 L1255.00,361.43 L1255.71,316.43 Z" fill="#528c2a" fill-opacity="0.10" stroke="#000000" stroke-width="1.2"/>
    <path d="M1130.00,363.57 L1167.86,365.71 L1132.14,370.00 L1128.57,420.71 L1023.57,424.29 L1025.71,395.00 L1030.00,416.43 L1124.29,416.43 L1130.00,363.57 Z" fill="#528c2a" fill-opacity="0.10" stroke="#000000" stroke-width="1.2"/>
    <path d="M305.71,377.86 L307.14,385.00 L260.00,386.43 L253.57,402.86 L255.71,382.14 L305.71,377.86 Z" fill="#528c2a" fill-opacity="0.10" stroke="#000000" stroke-width="1.2"/>
    <path d="M1292.86,400.71 L1292.86,400.71 Z" fill="#528c2a" fill-opacity="0.10" stroke="#000000" stroke-width="1.2"/>
    <path d="M1302.86,417.86 L1302.86,417.86 Z" fill="#528c2a" fill-opacity="0.10" stroke="#000000" stroke-width="1.2"/>
    <path d="M254.29,460.71 L260.00,526.43 L253.57,522.86 L254.29,460.71 Z" fill="#528c2a" fill-opacity="0.10" stroke="#000000" stroke-width="1.2"/>
    <path d="M 1030 465 L 1055 472.86 L 1055 500 L 1078.57 505 L 1080.71 535.71 L 1080.71 545.71 L 1080.71 574.29 L 1057.14 579.29 L 1054.29 590.71 L 1052.86 575 L 1077.86 570 L 1077.86 510 L 1054.29 507.86 L 1049.29 475.71 L 1027.14 473.57 L 1030 465 Z" fill="#528c2a" fill-opacity="0.10" stroke="#000000" stroke-width="1.2"/>
    <path d="M1217.14,519.29 L1217.14,519.29 Z" fill="#528c2a" fill-opacity="0.10" stroke="#000000" stroke-width="1.2"/>
    <path d="M330.00,525.00 L335.00,591.43 L288.57,593.57 L278.57,606.43 L281.43,590.71 L332.14,587.14 L330.00,525.00 Z" fill="#528c2a" fill-opacity="0.10" stroke="#000000" stroke-width="1.2"/>
    <path d="M1127.14,557.86 L1127.14,557.86 Z" fill="#528c2a" fill-opacity="0.10" stroke="#000000" stroke-width="1.2"/>
    <path d="M1232.86,607.86 L1232.86,607.86 Z" fill="#528c2a" fill-opacity="0.10" stroke="#000000" stroke-width="1.2"/>
    <path d="M278.57,623.57 L255.71,635.00 L230.71,628.57 L278.57,623.57 Z" fill="#528c2a" fill-opacity="0.10" stroke="#000000" stroke-width="1.2"/>
    <path d="M1052.86,632.14 L1055.00,712.86 L1031.43,719.29 L1025.71,730.71 L1027.14,713.57 L1049.29,711.43 L1052.86,632.14 Z" fill="#528c2a" fill-opacity="0.10" stroke="#000000" stroke-width="1.2"/>
    <path d="M1292.86,647.86 L1292.86,647.86 Z" fill="#528c2a" fill-opacity="0.10" stroke="#000000" stroke-width="1.2"/>
    <path d="M 328.57 699.29 L 331.43 695 L 335 730 L 328.57 699.29 Z" fill="#528c2a" fill-opacity="0.10" stroke="#000000" stroke-width="1.2"/>
    <path d="M1025.71,770.71 L1031.43,782.14 L1101.43,782.14 L1110.00,802.14 L1133.57,804.29 L1106.43,807.14 L1105.71,835.00 L1098.57,786.43 L1025.71,785.00 L1025.71,770.71 Z" fill="#528c2a" fill-opacity="0.10" stroke="#000000" stroke-width="1.2"/>
    <path d="M332.86,779.29 L335.00,818.57 L311.43,820.71 L305.71,829.29 L307.14,817.86 L330.71,815.71 L332.86,779.29 Z" fill="#528c2a" fill-opacity="0.10" stroke="#000000" stroke-width="1.2"/>
    <path d="M 99.29 885.71 L 105.71 852.14 L 195 854.29 L 180.71 861.43 L 180 887.86 L 174.29 856.43 L 105.71 856.43 L 102.14 891.43 L 90.71 890 L 99.29 885.71 Z" fill="#528c2a" fill-opacity="0.10" stroke="#000000" stroke-width="1.2"/>
    <path d="M 238.57 852.14 L 257.86 854.29 L 261.43 887.86 L 307.14 883.57 L 359.29 892.86 L 359.29 955.71 L 376.43 961.43 L 360.71 964.29 L 353.57 895.71 L 261.43 893.57 L 253.57 858.57 L 238.57 852.14 Z" fill="#528c2a" fill-opacity="0.10" stroke="#000000" stroke-width="1.2"/>
    <path d="M1102.86,875.00 L1100.00,893.57 L1007.14,893.57 L999.29,907.14 L1001.43,889.29 L1098.57,889.29 L1102.86,875.00 Z" fill="#528c2a" fill-opacity="0.10" stroke="#000000" stroke-width="1.2"/>
    <path d="M1180.00,925.00 L1180.00,925.00 Z" fill="#528c2a" fill-opacity="0.10" stroke="#000000" stroke-width="1.2"/>
    <path d="M107.14,943.57 L107.14,943.57 Z" fill="#528c2a" fill-opacity="0.10" stroke="#000000" stroke-width="1.2"/>
    <path d="M1001.43,949.29 L1005.00,1011.43 L991.43,1013.57 L999.29,1005.71 L1001.43,949.29 Z" fill="#528c2a" fill-opacity="0.10" stroke="#000000" stroke-width="1.2"/>
    <path d="M421.43,959.29 L436.43,961.43 L440.00,1049.29 L433.57,1045.71 L432.14,965.71 L421.43,959.29 Z" fill="#528c2a" fill-opacity="0.10" stroke="#000000" stroke-width="1.2"/>
    <path d="M1184.29,965.00 L1184.29,965.00 Z" fill="#528c2a" fill-opacity="0.10" stroke="#000000" stroke-width="1.2"/>
    <path d="M591.43,975.00 L597.86,978.57 L590.00,987.86 L591.43,975.00 Z" fill="#528c2a" fill-opacity="0.10" stroke="#000000" stroke-width="1.2"/>
    <path d="M648.57,975.00 L657.86,978.57 L648.57,975.00 Z" fill="#528c2a" fill-opacity="0.10" stroke="#000000" stroke-width="1.2"/>
    <path d="M664.29,975.00 L664.29,975.00 Z" fill="#528c2a" fill-opacity="0.10" stroke="#000000" stroke-width="1.2"/>
    <path d="M720.00,975.00 L732.14,978.57 L720.00,975.00 Z" fill="#528c2a" fill-opacity="0.10" stroke="#000000" stroke-width="1.2"/>
    <path d="M894.29,979.29 L898.57,1012.14 L894.29,979.29 Z" fill="#528c2a" fill-opacity="0.10" stroke="#000000" stroke-width="1.2"/>
    <path d="M1271.43,980.71 L1271.43,980.71 Z" fill="#528c2a" fill-opacity="0.10" stroke="#000000" stroke-width="1.2"/>
    <path d="M740.00,985.00 L743.57,1042.86 L752.14,1048.57 L742.86,1063.57 L740.00,985.00 Z" fill="#528c2a" fill-opacity="0.10" stroke="#000000" stroke-width="1.2"/>
    <path d="M821.43,985.00 L821.43,1023.57 L821.43,985.00 Z" fill="#528c2a" fill-opacity="0.10" stroke="#000000" stroke-width="1.2"/>
    <path d="M947.14,1009.29 L955.00,1011.43 L950.00,1080.71 L947.14,1009.29 Z" fill="#528c2a" fill-opacity="0.10" stroke="#000000" stroke-width="1.2"/>
    <path d="M 1049.29 1045.71 L 1055 1041.43 L 1101.43 1045 L 1105 1077.14 L 1120 1083.57 L 1100.71 1081.43 L 1097.14 1049.29 L 1049.29 1045.71 Z" fill="#528c2a" fill-opacity="0.10" stroke="#000000" stroke-width="1.2"/>
    <path d="M821.43,1027.86 L822.14,1047.14 L807.14,1049.29 L819.29,1042.86 L821.43,1027.86 Z" fill="#528c2a" fill-opacity="0.10" stroke="#000000" stroke-width="1.2"/>
    <path d="M588.57,1033.57 L592.14,1077.14 L615.71,1079.29 L617.14,1096.43 L610.00,1085.00 L585.00,1084.29 L588.57,1033.57 Z" fill="#528c2a" fill-opacity="0.10" stroke="#000000" stroke-width="1.2"/>
    <path d="M237.14,1037.86 L237.14,1037.86 Z" fill="#528c2a" fill-opacity="0.10" stroke="#000000" stroke-width="1.2"/>
    <path d="M 484.29 1045 L 491.43 1080.71 L 543.57 1084.29 L 517.14 1085 L 508.57 1085 L 483.57 1081.43 L 484.29 1045 Z" fill="#528c2a" fill-opacity="0.10" stroke="#000000" stroke-width="1.2"/>
    <path d="M231.43,1047.86 L231.43,1047.86 Z" fill="#528c2a" fill-opacity="0.10" stroke="#000000" stroke-width="1.2"/>
    <path d="M244.29,1055.00 L244.29,1055.00 Z" fill="#528c2a" fill-opacity="0.10" stroke="#000000" stroke-width="1.2"/>
    <path d="M1165.71,1079.29 L1182.14,1081.43 L1185.71,1113.57 L1277.86,1117.14 L1184.29,1117.86 L1182.14,1185.71 L1131.43,1187.86 L1177.86,1181.43 L1177.86,1085.71 L1165.71,1079.29 Z" fill="#528c2a" fill-opacity="0.10" stroke="#000000" stroke-width="1.2"/>
    <path d="M54.29,1109.29 L54.29,1109.29 Z" fill="#528c2a" fill-opacity="0.10" stroke="#000000" stroke-width="1.2"/>
    <path d="M615.71,1136.43 L617.14,1235.00 L615.71,1136.43 Z" fill="#528c2a" fill-opacity="0.10" stroke="#000000" stroke-width="1.2"/>
    <path d="M1285.71,1167.86 L1285.71,1167.86 Z" fill="#528c2a" fill-opacity="0.10" stroke="#000000" stroke-width="1.2"/>
    <path d="M518.57,1237.86 L518.57,1237.86 Z" fill="#528c2a" fill-opacity="0.10" stroke="#000000" stroke-width="1.2"/>
    <path d="M190.00,1290.71 L190.00,1290.71 Z" fill="#528c2a" fill-opacity="0.10" stroke="#000000" stroke-width="1.2"/>
    <path d="M422.86,1309.29 L422.86,1309.29 Z" fill="#528c2a" fill-opacity="0.10" stroke="#000000" stroke-width="1.2"/>
    <path d="M662.86,419.29 L710.00,436.43 L714.29,469.29 L744.29,453.57 L755.71,453.57 L770.00,470.71 L785.71,469.29 L789.29,535.71 L840.71,542.86 L856.43,571.43 L840.71,605.71 L871.43,607.86 L875.00,642.86 L893.57,645.71 L875.00,650.00 L889.29,675.71 L875.00,698.57 L875.00,750.00 L825.71,752.14 L808.57,766.43 L772.86,752.14 L770.00,825.00 L718.57,820.71 L714.29,786.43 L688.57,786.43 L671.43,802.14 L644.29,786.43 L615.71,787.86 L613.57,735.71 L564.29,733.57 L545.00,704.29 L558.57,665.00 L485.00,662.86 L510.71,658.57 L510.71,615.71 L493.57,602.86 L493.57,585.71 L509.29,572.86 L510.00,556.43 L536.43,554.29 L536.43,535.71 L519.29,522.86 L517.86,508.57 L536.43,494.29 L537.86,471.43 L611.43,469.29 L615.71,435.00 L650.00,435.00 L662.86,419.29 Z" fill="#742fa3" fill-opacity="0.10" stroke="#000000" stroke-width="1.2"/>
    <path d="M798.57,423.57 L798.57,423.57 Z" fill="#742fa3" fill-opacity="0.10" stroke="#000000" stroke-width="1.2"/>
    <path d="M622.86,439.29 L617.14,507.86 L611.43,475.00 L542.14,477.14 L542.14,495.71 L557.86,517.14 L542.14,532.86 L540.71,560.00 L515.00,565.71 L530.71,587.14 L515.00,617.14 L516.43,657.14 L566.43,662.86 L566.43,678.57 L582.14,694.29 L580.71,708.57 L566.43,715.71 L568.57,729.29 L611.43,729.29 L619.29,715.71 L621.43,782.14 L647.14,782.14 L660.00,767.86 L672.86,767.86 L685.71,782.14 L718.57,782.14 L722.86,816.43 L764.29,816.43 L768.57,696.43 L774.29,747.86 L798.57,732.14 L824.29,747.86 L869.29,745.71 L869.29,698.57 L853.57,682.86 L869.29,661.43 L869.29,615.71 L810.71,610.00 L835.00,604.29 L819.29,580.00 L835.00,547.14 L785.00,541.43 L781.43,475.00 L741.43,489.29 L728.57,475.00 L707.86,471.43 L704.29,440.71 L667.14,455.00 L652.86,440.71 L622.86,439.29 Z" fill="#742fa3" fill-opacity="0.10" stroke="#000000" stroke-width="1.2"/>
    <polyline style="fill: rgb(216, 216, 216); stroke: rgb(0, 0, 0);" points="1510.821044921875 1266.3330078125"/>
  </g>

<g class="point" data-id="A1" data-label="A1 点" data-default-hours="3">
  <circle class="hotspot" cx="112.06" cy="101.63" r="10"/>
  <text class="hotspot-label" x="122.06" y="105.63" fill="black" font-weight="bold">A1</text>
</g>

<g class="point" data-id="A2" data-label="A2 点" data-default-hours="3">
  <circle class="hotspot" cx="171.63" cy="176.43" r="10"/>
  <text class="hotspot-label" x="181.63" y="180.43" fill="black" font-weight="bold">A2</text>
</g>

<g class="point" data-id="A3" data-label="A3 点" data-default-hours="3">
  <circle class="hotspot" cx="87.03" cy="207.47" r="10"/>
  <text class="hotspot-label" x="97.03" y="211.47" fill="black" font-weight="bold">A3</text>
</g>

<g class="point" data-id="A4" data-label="A4 点" data-default-hours="3">
  <circle class="hotspot" cx="220.31" cy="306.75" r="10"/>
  <text class="hotspot-label" x="230.31" y="310.75" fill="black" font-weight="bold">A4</text>
</g>

<g class="point" data-id="A5" data-label="A5 点" data-default-hours="3">
  <circle class="hotspot" cx="133.27" cy="342.11" r="10"/>
  <text class="hotspot-label" x="143.27" y="346.11" fill="black" font-weight="bold">A5</text>
</g>

<g class="point" data-id="A6" data-label="A6 点" data-default-hours="3">
  <circle class="hotspot" cx="133.27" cy="457.72" r="10"/>
  <text class="hotspot-label" x="143.27" y="461.72" fill="black" font-weight="bold">A6</text>
</g>

<g class="point" data-id="A7" data-label="A7 点" data-default-hours="3">
  <circle class="hotspot" cx="78.87" cy="595.08" r="10"/>
  <text class="hotspot-label" x="88.87" y="599.08" fill="black" font-weight="bold">A7</text>
</g>

<g class="point" data-id="A8" data-label="A8 点" data-default-hours="3">
  <circle class="hotspot" cx="242.07" cy="589.64" r="10"/>
  <text class="hotspot-label" x="252.07" y="593.64" fill="black" font-weight="bold">A8</text>
</g>

<g class="point" data-id="A9" data-label="A9 点" data-default-hours="3">
  <circle class="hotspot" cx="87.03" cy="736.52" r="10"/>
  <text class="hotspot-label" x="97.03" y="740.52" fill="black" font-weight="bold">A9</text>
</g>

<g class="point" data-id="A10" data-label="A10 点" data-default-hours="3">
  <circle class="hotspot" cx="282.87" cy="774.6" r="10"/>
  <text class="hotspot-label" x="292.87" y="778.6" fill="black" font-weight="bold">A10</text>
</g>

<g class="point" data-id="B1" data-label="B1 点" data-default-hours="3">
  <circle class="hotspot" cx="204.82" cy="42.65" r="10"/>
  <text class="hotspot-label" x="214.82" y="46.65" fill="black" font-weight="bold">B1</text>
</g>

<g class="point" data-id="B2" data-label="B2 点" data-default-hours="3">
  <circle class="hotspot" cx="359.87" cy="140.57" r="10"/>
  <text class="hotspot-label" x="369.87" y="144.57" fill="black" font-weight="bold">B2</text>
</g>

<g class="point" data-id="B3" data-label="B3 点" data-default-hours="3">
  <circle class="hotspot" cx="437.39" cy="304.86" r="10"/>
  <text class="hotspot-label" x="447.39" y="308.86" fill="black" font-weight="bold">B3</text>
</g>

<g class="point" data-id="B4" data-label="B4 点" data-default-hours="3">
  <circle class="hotspot" cx="505.39" cy="107.65" r="10"/>
  <text class="hotspot-label" x="515.39" y="111.65" fill="black" font-weight="bold">B4</text>
</g>

<g class="point" data-id="B5" data-label="B5 点" data-default-hours="3">
  <circle class="hotspot" cx="552.99" cy="225.98" r="10"/>
  <text class="hotspot-label" x="562.99" y="229.98" fill="black" font-weight="bold">B5</text>
</g>

<g class="point" data-id="B6" data-label="B6 点" data-default-hours="3">
  <circle class="hotspot" cx="678.11" cy="54.61" r="10"/>
  <text class="hotspot-label" x="688.11" y="58.61" fill="black" font-weight="bold">B6</text>
</g>

<g class="point" data-id="C1" data-label="C1 点" data-default-hours="3">
  <circle class="hotspot" cx="748.83" cy="153.35" r="10"/>
  <text class="hotspot-label" x="758.83" y="157.35" fill="black" font-weight="bold">C1</text>
</g>

<g class="point" data-id="C2" data-label="C2 点" data-default-hours="3">
  <circle class="hotspot" cx="937.87" cy="43.73" r="10"/>
  <text class="hotspot-label" x="947.87" y="47.73" fill="black" font-weight="bold">C2</text>
</g>

<g class="point" data-id="C3" data-label="C3 点" data-default-hours="3">
  <circle class="hotspot" cx="1135.07" cy="36.93" r="10"/>
  <text class="hotspot-label" x="1145.07" y="40.93" fill="black" font-weight="bold">C3</text>
</g>

<g class="point" data-id="C4" data-label="C4 点" data-default-hours="3">
  <circle class="hotspot" cx="1287.4" cy="85.89" r="10"/>
  <text class="hotspot-label" x="1297.4" y="89.89" fill="black" font-weight="bold">C4</text>
</g>

<g class="point" data-id="C5" data-label="C5 点" data-default-hours="3">
  <circle class="hotspot" cx="1018.11" cy="209.65" r="10"/>
  <text class="hotspot-label" x="1028.11" y="213.65" fill="black" font-weight="bold">C5</text>
</g>

<g class="point" data-id="C6" data-label="C6 点" data-default-hours="3">
  <circle class="hotspot" cx="1079.31" cy="330.7" r="10"/>
  <text class="hotspot-label" x="1089.31" y="334.7" fill="black" font-weight="bold">C6</text>
</g>

<g class="point" data-id="C7" data-label="C7 点" data-default-hours="3">
  <circle class="hotspot" cx="1147.31" cy="289.9" r="10"/>
  <text class="hotspot-label" x="1157.31" y="293.9" fill="black" font-weight="bold">C7</text>
</g>

<g class="point" data-id="C8" data-label="C8 点" data-default-hours="3">
  <circle class="hotspot" cx="1216.67" cy="315.74" r="10"/>
  <text class="hotspot-label" x="1226.67" y="319.74" fill="black" font-weight="bold">C8</text>
</g>

<g class="point" data-id="D1" data-label="D1 点" data-default-hours="3">
  <circle class="hotspot" cx="1181.97" cy="415.29" r="10"/>
  <text class="hotspot-label" x="1191.97" y="419.29" fill="black" font-weight="bold">D1</text>
</g>

<g class="point" data-id="D2" data-label="D2 点" data-default-hours="3">
  <circle class="hotspot" cx="1273.78" cy="446.44" r="10"/>
  <text class="hotspot-label" x="1283.78" y="450.44" fill="black" font-weight="bold">D2</text>
</g>

<g class="point" data-id="D3" data-label="D3 点" data-default-hours="3">
  <circle class="hotspot" cx="1300.01" cy="521.85" r="10"/>
  <text class="hotspot-label" x="1310.01" y="525.85" fill="black" font-weight="bold">D3</text>
</g>

<g class="point" data-id="D4" data-label="D4 点" data-default-hours="3">
  <circle class="hotspot" cx="1162.3" cy="580.87" r="10"/>
  <text class="hotspot-label" x="1172.3" y="584.87" fill="black" font-weight="bold">D4</text>
</g>

<g class="point" data-id="D5" data-label="D5 点" data-default-hours="3">
  <circle class="hotspot" cx="1254.74" cy="783.81" r="10"/>
  <text class="hotspot-label" x="1264.74" y="787.81" fill="black" font-weight="bold">D5</text>
</g>

<g class="point" data-id="D6" data-label="D6 点" data-default-hours="3">
  <circle class="hotspot" cx="1150.31" cy="950.86" r="10"/>
  <text class="hotspot-label" x="1160.31" y="954.86" fill="black" font-weight="bold">D6</text>
</g>

<g class="point" data-id="D7" data-label="D7 点" data-default-hours="3">
  <circle class="hotspot" cx="1274.07" cy="952.22" r="10"/>
  <text class="hotspot-label" x="1284.07" y="956.22" fill="black" font-weight="bold">D7</text>
</g>

<g class="point" data-id="D8" data-label="D8 点" data-default-hours="3">
  <circle class="hotspot" cx="1218.31" cy="1044.7" r="10"/>
  <text class="hotspot-label" x="1228.31" y="1048.7" fill="black" font-weight="bold">D8</text>
</g>

<g class="point" data-id="E1" data-label="E1 点" data-default-hours="3">
  <circle class="hotspot" cx="634.43" cy="1021.85" r="10"/>
  <text class="hotspot-label" x="644.43" y="1025.85" fill="black" font-weight="bold">E1</text>
</g>

<g class="point" data-id="E2" data-label="E2 点" data-default-hours="3">
  <circle class="hotspot" cx="659.02" cy="1141.53" r="10"/>
  <text class="hotspot-label" x="669.02" y="1145.53" fill="black" font-weight="bold">E2</text>
</g>

<g class="point" data-id="E3" data-label="E3 点" data-default-hours="3">
  <circle class="hotspot" cx="660.25" cy="1282.51" r="10"/>
  <text class="hotspot-label" x="670.25" y="1286.51" fill="black" font-weight="bold">E3</text>
</g>

<g class="point" data-id="E4" data-label="E4 点" data-default-hours="3">
  <circle class="hotspot" cx="806.56" cy="1220.22" r="10"/>
  <text class="hotspot-label" x="816.56" y="1224.22" fill="black" font-weight="bold">E4</text>
</g>

<g class="point" data-id="E5" data-label="E5 点" data-default-hours="3">
  <circle class="hotspot" cx="954.1" cy="1162.84" r="10"/>
  <text class="hotspot-label" x="964.1" y="1166.84" fill="black" font-weight="bold">E5</text>
</g>

<g class="point" data-id="E6" data-label="E6 点" data-default-hours="3">
  <circle class="hotspot" cx="931.15" cy="1295.63" r="10"/>
  <text class="hotspot-label" x="941.15" y="1299.63" fill="black" font-weight="bold">E6</text>
</g>

<g class="point" data-id="E7" data-label="E7 点" data-default-hours="3">
  <circle class="hotspot" cx="1134.43" cy="1128.41" r="10"/>
  <text class="hotspot-label" x="1144.43" y="1132.41" fill="black" font-weight="bold">E7</text>
</g>

<g class="point" data-id="E8" data-label="E8 点" data-default-hours="3">
  <circle class="hotspot" cx="1316.4" cy="1197.26" r="10"/>
  <text class="hotspot-label" x="1326.4" y="1201.26" fill="black" font-weight="bold">E8</text>
</g>
  
</svg>
